{
  "accessors": [
    {
      "bufferView": 2,
      "componentType": 5126,
      "count": 3366,
      "max": [
        5.4802303314208984,
        8.2037410736083984,
        1.8034431934356689
      ],
      "min": [
        -3.3624134063720703,
        0.013998031616210938,
        -3.5347349643707275
      ],
      "type": "VEC3"
    },
    {
      "bufferView": 2,
      "byteOffset": 40392,
      "componentType": 5126,
      "count": 3366,
      "max": [
        0.99936288595199585,
        0.99970704317092896,
        0.99928557872772217
      ],
      "min": [
        -0.99900281429290771,
        -0.99998879432678223,
        -0.99978899955749512
      ],
      "type": "VEC3"
    },
    {
      "bufferView": 3,
      "componentType": 5126,
      "count": 3366,
      "max": [
        0.99999850988388062,
        0.99998950958251953,
        0.99996441602706909,
        1
      ],
      "min": [
        -0.99998384714126587,
        -0.99999147653579712,
        -0.99999934434890747,
        -1
      ],
      "type": "VEC4"
    },
    {
      "bufferView": 1,
      "componentType": 5126,
      "count": 3366,
      "max": [
        0.99044197797775269,
        0.97565972805023193
      ],
      "min": [
        0.0062690451741218567,
        0.01885831356048584
      ],
      "type": "VEC2"
    },
    {
      "bufferView": 0,
      "componentType": 5125,
      "count": 10806,
      "max": [
        3365
      ],
      "min": [
        0
      ],
      "type": "SCALAR"
    },
    {
      "bufferView": 2,
      "byteOffset": 80784,
      "componentType": 5126,
      "count": 370,
      "max": [
        1.1206912994384766,
        5.8411121368408203,
        1.4002547264099121
      ],
      "min": [
        0.39557528495788574,
        5.0684537887573242,
        0.72548913955688477
      ],
      "type": "VEC3"
    },
    {
      "bufferView": 2,
      "byteOffset": 85224,
      "componentType": 5126,
      "count": 370,
      "max": [
        0.99954140186309814,
        0.99901425838470459,
        0.99105465412139893
      ],
      "min": [
        -0.99743098020553589,
        -0.99901425838470459,
        -0.99585920572280884
      ],
      "type": "VEC3"
    },
    {
      "bufferView": 3,
      "byteOffset": 53856,
      "componentType": 5126,
      "count": 370,
      "max": [
        0.99409562349319458,
        0.99924290180206299,
        0.99790191650390625,
        1
      ],
      "min": [
        -0.99599719047546387,
        -0.99943310022354126,
        -0.999808669090271,
        1
      ],
      "type": "VEC4"
    },
    {
      "bufferView": 1,
      "byteOffset": 26928,
      "componentType": 5126,
      "count": 370,
      "max": [
        0.93789982795715332,
        0.99800801277160645
      ],
      "min": [
        0.001872055814601481,
        0.0019920319318771362
      ],
      "type": "VEC2"
    },
    {
      "bufferView": 0,
      "byteOffset": 43224,
      "componentType": 5125,
      "count": 1320,
      "max": [
        369
      ],
      "min": [
        0
      ],
      "type": "SCALAR"
    },
    {
      "bufferView": 2,
      "byteOffset": 89664,
      "componentType": 5126,
      "count": 370,
      "max": [
        -0.35570740699768066,
        5.8267474174499512,
        1.407987117767334
      ],
      "min": [
        -1.0832326412200928,
        5.0545034408569336,
        0.73941373825073242
      ],
      "type": "VEC3"
    },
    {
      "bufferView": 2,
      "byteOffset": 94104,
      "componentType": 5126,
      "count": 370,
      "max": [
        0.99377113580703735,
        0.9984782338142395,
        0.99493080377578735
      ],
      "min": [
        -0.99868178367614746,
        -0.99847835302352905,
        -0.99823504686355591
      ],
      "type": "VEC3"
    },
    {
      "bufferView": 3,
      "byteOffset": 59776,
      "componentType": 5126,
      "count": 370,
      "max": [
        0.99774092435836792,
        0.99891859292984009,
        0.99966734647750854,
        1
      ],
      "min": [
        -0.99093419313430786,
        -0.99980926513671875,
        -0.9992792010307312,
        1
      ],
      "type": "VEC4"
    },
    {
      "bufferView": 1,
      "byteOffset": 29888,
      "componentType": 5126,
      "count": 370,
      "max": [
        0.93789982795715332,
        0.99800801277160645
      ],
      "min": [
        0.001872055814601481,
        0.0019920319318771362
      ],
      "type": "VEC2"
    },
    {
      "bufferView": 0,
      "byteOffset": 48504,
      "componentType": 5125,
      "count": 1320,
      "max": [
        369
      ],
      "min": [
        0
      ],
      "type": "SCALAR"
    }
  ],
  "asset": {
    "extras": {
      "author": "ENOMIC (https://sketchfab.com/ENOMIC)",
      "license": "CC-BY-NC-4.0 (http://creativecommons.org/licenses/by-nc/4.0/)",
      "source": "https://sketchfab.com/3d-models/pikachu-low-poly-eb56872fa3d64c64aebf738ec23e11de",
      "title": "Pikachu - Low Poly"
    },
    "generator": "Sketchfab-5.39.0",
    "version": "2.0"
  },
  "bufferViews": [
    {
      "buffer": 0,
      "byteLength": 53784,
      "byteOffset": 0,
      "name": "floatBufferViews",
      "target": 34963
    },
    {
      "buffer": 0,
      "byteLength": 32848,
      "byteOffset": 53784,
      "byteStride": 8,
      "name": "floatBufferViews",
      "target": 34962
    },
    {
      "buffer": 0,
      "byteLength": 98544,
      "byteOffset": 86632,
      "byteStride": 12,
      "name": "floatBufferViews",
      "target": 34962
    },
    {
      "buffer": 0,
      "byteLength": 65696,
      "byteOffset": 185176,
      "byteStride": 16,
      "name": "floatBufferViews",
      "target": 34962
    }
  ],
  "buffers": [
    {
      "byteLength": 250872,
      "uri": "scene.bin"
    }
  ],
  "images": [
    {
      "uri": "textures/pasted__Skin_baseColor.png"
    },
    {
      "uri": "textures/pasted__LEyes_baseColor.png"
    },
    {
      "uri": "textures/pasted__REyes_baseColor.png"
    }
  ],
  "materials": [
    {
      "doubleSided": true,
      "name": "pasted__Skin",
      "pbrMetallicRoughness": {
        "baseColorFactor": [
          1,
          1,
          1,
          1
        ],
        "baseColorTexture": {
          "index": 0,
          "texCoord": 0
        },
        "metallicFactor": 0.0504954268,
        "roughnessFactor": 0.59999999999999998
      }
    },
    {
      "doubleSided": true,
      "name": "pasted__REyes",
      "pbrMetallicRoughness": {
        "baseColorFactor": [
          1,
          1,
          1,
          1
        ],
        "baseColorTexture": {
          "index": 2,
          "texCoord": 0
        },
        "metallicFactor": 0,
        "roughnessFactor": 0.59999999999999998
      }
    },
    {
      "doubleSided": true,
      "name": "pasted__LEyes",
      "pbrMetallicRoughness": {
        "baseColorFactor": [
          1,
          1,
          1,
          1
        ],
        "baseColorTexture": {
          "index": 1,
          "texCoord": 0
        },
        "metallicFactor": 0,
        "roughnessFactor": 0.59999999999999998
      }
    }
  ],
  "meshes": [
    {
      "name": "pasted__pCube9_pasted__Skin_0",
      "primitives": [
        {
          "attributes": {
            "NORMAL": 1,
            "POSITION": 0,
            "TANGENT": 2,
            "TEXCOORD_0": 3
          },
          "indices": 4,
          "material": 0,
          "mode": 4
        }
      ]
    },
    {
      "name": "pasted__pCube9_pasted__REyes_0",
      "primitives": [
        {
          "attributes": {
            "NORMAL": 6,
            "POSITION": 5,
            "TANGENT": 7,
            "TEXCOORD_0": 8
          },
          "indices": 9,
          "material": 1,
          "mode": 4
        }
      ]
    },
    {
      "name": "pasted__pCube9_pasted__LEyes_0",
      "primitives": [
        {
          "attributes": {
            "NORMAL": 11,
            "POSITION": 10,
            "TANGENT": 12,
            "TEXCOORD_0": 13
          },
          "indices": 14,
          "material": 2,
          "mode": 4
        }
      ]
    }
  ],
  "nodes": [
    {
      "children": [
        1
      ],
      "name": "RootNode (gltf orientation matrix)",
      "rotation": [
        -0.70710678118654746,
        -0,
        -0,
        0.70710678118654757
      ]
    },
    {
      "children": [
        2
      ],
      "name": "RootNode (model correction matrix)"
    },
    {
      "children": [
        3
      ],
      "matrix": [
        1,
        0,
        0,
        0,
        0,
        0,
        1,
        0,
        0,
        -1,
        0,
        0,
        0,
        0,
        0,
        1
      ],
      "name": "aeaf74cace7748669e771bf51e23ccd0.fbx"
    },
    {
      "children": [
        4
      ],
      "name": "RootNode"
    },
    {
      "children": [
        5
      ],
      "name": "group"
    },
    {
      "children": [
        6,
        7,
        8
      ],
      "name": "pasted__pCube9"
    },
    {
      "mesh": 0,
      "name": "pasted__pCube9_pasted__Skin_0"
    },
    {
      "mesh": 1,
      "name": "pasted__pCube9_pasted__REyes_0"
    },
    {
      "mesh": 2,
      "name": "pasted__pCube9_pasted__LEyes_0"
    }
  ],
  "samplers": [
    {
      "magFilter": 9729,
      "minFilter": 9987,
      "wrapS": 10497,
      "wrapT": 10497
    }
  ],
  "scene": 0,
  "scenes": [
    {
      "name": "OSG_Scene",
      "nodes": [
        0
      ]
    }
  ],
  "textures": [
    {
      "sampler": 0,
      "source": 0
    },
    {
      "sampler": 0,
      "source": 1
    },
    {
      "sampler": 0,
      "source": 2
    }
  ]
}

