{
  "accessors": [
    {
      "bufferView": 2,
      "componentType": 5126,
      "count": 1050,
      "max": [
        0.8527644872665405,
        0.8527457118034363,
        -0.06126468628644943
      ],
      "min": [
        -0.8527644872665405,
        -0.8099344372749329,
        -0.8562789559364319
      ],
      "type": "VEC3"
    },
    {
      "bufferView": 2,
      "byteOffset": 12600,
      "componentType": 5126,
      "count": 1050,
      "max": [
        0.9943574070930481,
        0.9943963289260864,
        0.9991304874420166
      ],
      "min": [
        -0.9943574070930481,
        -0.9678085446357727,
        -1.0
      ],
      "type": "VEC3"
    },
    {
      "bufferView": 1,
      "componentType": 5126,
      "count": 1050,
      "max": [
        0.755208432674408,
        0.8802083730697632
      ],
      "min": [
        0.5128387808799744,
        0.3697916865348816
      ],
      "type": "VEC2"
    },
    {
      "bufferView": 0,
      "componentType": 5125,
      "count": 5838,
      "type": "SCALAR"
    },
    {
      "bufferView": 2,
      "byteOffset": 25200,
      "componentType": 5126,
      "count": 1049,
      "max": [
        0.8527644872665405,
        0.015241444110870361,
        0.8583461046218872
      ],
      "min": [
        -0.8527644872665405,
        -1.6474387645721436,
        0.06333188712596893
      ],
      "type": "VEC3"
    },
    {
      "bufferView": 2,
      "byteOffset": 37788,
      "componentType": 5126,
      "count": 1049,
      "max": [
        0.9943574070930481,
        0.9943963289260864,
        1.0
      ],
      "min": [
        -0.9943574070930481,
        -0.996950626373291,
        -0.9991304874420166
      ],
      "type": "VEC3"
    },
    {
      "bufferView": 1,
      "byteOffset": 8400,
      "componentType": 5126,
      "count": 1049,
      "max": [
        0.755208432674408,
        0.8802083730697632
      ],
      "min": [
        0.5128387212753296,
        0.3697916865348816
      ],
      "type": "VEC2"
    },
    {
      "bufferView": 0,
      "byteOffset": 23352,
      "componentType": 5125,
      "count": 5838,
      "type": "SCALAR"
    },
    {
      "bufferView": 2,
      "byteOffset": 50376,
      "componentType": 5126,
      "count": 408,
      "max": [
        0.21065577864646912,
        -1.6077038049697876,
        0.2131556272506714
      ],
      "min": [
        -0.21065577864646912,
        -1.6938705444335938,
        -0.20815593004226685
      ],
      "type": "VEC3"
    },
    {
      "bufferView": 2,
      "byteOffset": 55272,
      "componentType": 5126,
      "count": 408,
      "max": [
        1.0,
        0.6857142448425293,
        1.0
      ],
      "min": [
        -1.0,
        -0.9984284043312073,
        -1.0
      ],
      "type": "VEC3"
    },
    {
      "bufferView": 1,
      "byteOffset": 16792,
      "componentType": 5126,
      "count": 408,
      "max": [
        1.0,
        1.0
      ],
      "min": [
        0.0,
        0.01000000536441803
      ],
      "type": "VEC2"
    },
    {
      "bufferView": 0,
      "byteOffset": 46704,
      "componentType": 5125,
      "count": 1524,
      "type": "SCALAR"
    },
    {
      "bufferView": 2,
      "byteOffset": 60168,
      "componentType": 5126,
      "count": 379,
      "max": [
        0.8158507943153381,
        -0.021670162677764893,
        0.26639118790626526
      ],
      "min": [
        -0.8158507943153381,
        -1.6130547523498535,
        -0.26225683093070984
      ],
      "type": "VEC3"
    },
    {
      "bufferView": 2,
      "byteOffset": 64716,
      "componentType": 5126,
      "count": 379,
      "max": [
        1.0,
        1.0,
        0.8147755861282349
      ],
      "min": [
        -1.0,
        -1.0,
        -0.14157944917678833
      ],
      "type": "VEC3"
    },
    {
      "bufferView": 1,
      "byteOffset": 20056,
      "componentType": 5126,
      "count": 379,
      "max": [
        0.5472158193588257,
        0.8773323893547058
      ],
      "min": [
        0.5,
        0.37320250272750854
      ],
      "type": "VEC2"
    },
    {
      "bufferView": 0,
      "byteOffset": 52800,
      "componentType": 5125,
      "count": 1776,
      "type": "SCALAR"
    }
  ],
  "asset": {
    "extras": {
      "author": "fatihmcnn (https://sketchfab.com/fatihmcnn)",
      "license": "CC-BY-4.0 (http://creativecommons.org/licenses/by/4.0/)",
      "source": "https://sketchfab.com/3d-models/low-poly-pokeball-02b4fa23f3664685a6fbcd86263b3fc8",
      "title": "Low Poly Pokeball"
    },
    "generator": "Sketchfab-11.30.0",
    "version": "2.0"
  },
  "bufferViews": [
    {
      "buffer": 0,
      "byteLength": 59904,
      "name": "floatBufferViews",
      "target": 34963
    },
    {
      "buffer": 0,
      "byteLength": 23088,
      "byteOffset": 59904,
      "byteStride": 8,
      "name": "floatBufferViews",
      "target": 34962
    },
    {
      "buffer": 0,
      "byteLength": 69264,
      "byteOffset": 82992,
      "byteStride": 12,
      "name": "floatBufferViews",
      "target": 34962
    }
  ],
  "buffers": [
    {
      "byteLength": 152256,
      "uri": "scene.bin"
    }
  ],
  "materials": [
    {
      "doubleSided": true,
      "name": "Material.004",
      "pbrMetallicRoughness": {
        "metallicFactor": 0.0,
        "roughnessFactor": 0.6
      }
    },
    {
      "doubleSided": true,
      "name": "Material.005",
      "pbrMetallicRoughness": {
        "baseColorFactor": [
          1.0,
          0.0,
          0.0,
          1.0
        ],
        "metallicFactor": 0.4942040749320541,
        "roughnessFactor": 0.27531784105211315
      }
    },
    {
      "doubleSided": true,
      "name": "Material.003",
      "pbrMetallicRoughness": {
        "metallicFactor": 0.0,
        "roughnessFactor": 0.6
      }
    },
    {
      "doubleSided": true,
      "name": "Material.006",
      "pbrMetallicRoughness": {
        "baseColorFactor": [
          0.0,
          0.0,
          0.0,
          1.0
        ],
        "metallicFactor": 0.0,
        "roughnessFactor": 0.6
      }
    }
  ],
  "meshes": [
    {
      "name": "Cube_Material.004_0",
      "primitives": [
        {
          "attributes": {
            "NORMAL": 1,
            "POSITION": 0,
            "TEXCOORD_0": 2
          },
          "indices": 3,
          "material": 0,
          "mode": 4
        }
      ]
    },
    {
      "name": "Cube.001_Material.005_0",
      "primitives": [
        {
          "attributes": {
            "NORMAL": 5,
            "POSITION": 4,
            "TEXCOORD_0": 6
          },
          "indices": 7,
          "material": 1,
          "mode": 4
        }
      ]
    },
    {
      "name": "Cube.001_Material.003_0",
      "primitives": [
        {
          "attributes": {
            "NORMAL": 9,
            "POSITION": 8,
            "TEXCOORD_0": 10
          },
          "indices": 11,
          "material": 2,
          "mode": 4
        }
      ]
    },
    {
      "name": "Cube.001_Material.006_0",
      "primitives": [
        {
          "attributes": {
            "NORMAL": 13,
            "POSITION": 12,
            "TEXCOORD_0": 14
          },
          "indices": 15,
          "material": 3,
          "mode": 4
        }
      ]
    }
  ],
  "nodes": [
    {
      "children": [
        1
      ],
      "matrix": [
        1.0,
        0.0,
        0.0,
        0.0,
        0.0,
        2.220446049250313e-16,
        -1.0,
        0.0,
        0.0,
        1.0,
        2.220446049250313e-16,
        0.0,
        0.0,
        -23.03915977478028,
        24.939390182495114,
        1.0
      ],
      "name": "Sketchfab_model"
    },
    {
      "children": [
        2
      ],
      "matrix": [
        1.0,
        0.0,
        0.0,
        0.0,
        0.0,
        0.0,
        1.0,
        0.0,
        0.0,
        -1.0,
        0.0,
        0.0,
        0.0,
        0.0,
        0.0,
        1.0
      ],
      "name": "POKEBALL.fbx"
    },
    {
      "children": [
        3,
        6,
        8,
        10
      ],
      "name": "RootNode"
    },
    {
      "children": [
        4
      ],
      "matrix": [
        -29.08647719990347,
        -5.518906457566863,
        -95.51711910171437,
        0.0,
        56.63930913109449,
        79.46723428563203,
        -21.83912397841966,
        0.0,
        77.11008775993375,
        -60.45246356562044,
        -19.98834696773717,
        0.0,
        407.6245422363281,
        590.38623046875,
        -100.54539489746094,
        1.0
      ],
      "name": "Light"
    },
    {
      "children": [
        5
      ],
      "matrix": [
        1.0,
        0.0,
        0.0,
        0.0,
        0.0,
        2.220446049250313e-16,
        1.0,
        0.0,
        0.0,
        -1.0,
        2.220446049250313e-16,
        0.0,
        0.0,
        0.0,
        0.0,
        1.0
      ],
      "name": "Object_4"
    },
    {
      "name": "Object_5"
    },
    {
      "children": [
        7
      ],
      "matrix": [
        -65.15581009765468,
        -44.527143038140764,
        -61.41704928909654,
        0.0,
        -32.40135466989878,
        89.5395708958271,
        -30.542085476036902,
        0.0,
        68.59207001076176,
        1.2755314797120858e-05,
        -72.76761921184276,
        0.0,
        735.88916015625,
        495.8309326171875,
        692.5791015625,
        1.0
      ],
      "name": "Camera"
    },
    {
      "name": "Object_7"
    },
    {
      "children": [
        9
      ],
      "matrix": [
        144.96017456054688,
        0.0,
        0.0,
        0.0,
        0.0,
        -2.3617010124162774e-05,
        -144.96017456054497,
        0.0,
        0.0,
        144.96017456054497,
        -2.3617010124162774e-05,
        0.0,
        0.0,
        0.0,
        0.0,
        1.0
      ],
      "name": "Cube"
    },
    {
      "mesh": 0,
      "name": "Cube_Material.004_0"
    },
    {
      "children": [
        11,
        12,
        13
      ],
      "matrix": [
        144.96017456054688,
        0.0,
        0.0,
        0.0,
        0.0,
        -89.88825559061681,
        -113.72578298477514,
        0.0,
        0.0,
        113.72578298477514,
        -89.88825559061681,
        0.0,
        0.0,
        -0.029227882623672485,
        -121.40476989746094,
        1.0
      ],
      "name": "Cube.001"
    },
    {
      "mesh": 1,
      "name": "Cube.001_Material.005_0"
    },
    {
      "mesh": 2,
      "name": "Cube.001_Material.003_0"
    },
    {
      "mesh": 3,
      "name": "Cube.001_Material.006_0"
    }
  ],
  "scene": 0,
  "scenes": [
    {
      "name": "Sketchfab_Scene",
      "nodes": [
        0
      ]
    }
  ]
}
